<svg width="20" height="20" viewBox="0 0 20 20" fill="none" xmlns="http://www.w3.org/2000/svg">
<path fill-rule="evenodd" clip-rule="evenodd" d="M5.7143 1.92856C3.62351 1.92856 1.92859 3.62348 1.92859 5.71427V14.2857C1.92859 16.3765 3.62351 18.0714 5.7143 18.0714H14.2857C16.3765 18.0714 18.0714 16.3765 18.0714 14.2857V5.71427C18.0714 3.62348 16.3765 1.92856 14.2857 1.92856H5.7143ZM0.928589 5.71427C0.928589 3.0712 3.07123 0.928558 5.7143 0.928558H14.2857C16.9288 0.928558 19.0714 3.0712 19.0714 5.71427V14.2857C19.0714 16.9288 16.9288 19.0714 14.2857 19.0714H5.7143C3.07123 19.0714 0.928589 16.9288 0.928589 14.2857V5.71427ZM10.4667 7.06585C9.85735 6.97549 9.23505 7.07957 8.68829 7.36327C8.14152 7.64698 7.69814 8.09586 7.4212 8.64608C7.14426 9.19631 7.04786 9.81984 7.14572 10.428C7.24358 11.0362 7.53072 11.598 7.96629 12.0336C8.40185 12.4691 8.96368 12.7563 9.57184 12.8541C10.18 12.952 10.8035 12.8556 11.3538 12.5786C11.904 12.3017 12.3529 11.8583 12.6366 11.3116C12.9203 10.7648 13.0243 10.1425 12.934 9.53317C12.8418 8.91164 12.5522 8.33622 12.1079 7.89193C11.6636 7.44763 11.0882 7.15801 10.4667 7.06585ZM8.22772 6.47565C8.96118 6.09507 9.79597 5.95546 10.6134 6.07666C11.4471 6.2003 12.219 6.58881 12.815 7.18482C13.411 7.78083 13.7995 8.55272 13.9232 9.38649C14.0444 10.2039 13.9048 11.0387 13.5242 11.7721C13.1436 12.5056 12.5414 13.1004 11.8033 13.4719C11.0652 13.8434 10.2288 13.9727 9.41297 13.8414C8.59714 13.7101 7.84348 13.325 7.25918 12.7407C6.67488 12.1564 6.2897 11.4027 6.15842 10.5869C6.02715 9.77104 6.15646 8.9346 6.52796 8.1965C6.89947 7.4584 7.49425 6.85623 8.22772 6.47565ZM14.7143 4.7857C14.4382 4.7857 14.2143 5.00956 14.2143 5.2857C14.2143 5.56184 14.4382 5.7857 14.7143 5.7857H14.7225C14.9986 5.7857 15.2225 5.56184 15.2225 5.2857C15.2225 5.00956 14.9986 4.7857 14.7225 4.7857H14.7143Z" fill="black"/>
</svg>
