<svg width="135" height="26" viewBox="0 0 135 26" fill="none" xmlns="http://www.w3.org/2000/svg">
<line x1="2" y1="5" x2="2" y2="21" stroke="url(#paint0_linear_3_55)" stroke-width="4" stroke-linecap="round"/>
<line x1="12" y1="7" x2="12" y2="19" stroke="url(#paint1_linear_3_55)" stroke-width="4" stroke-linecap="round"/>
<line x1="22" y1="9" x2="22" y2="17" stroke="url(#paint2_linear_3_55)" stroke-width="4" stroke-linecap="round"/>
<path d="M37.1221 6.29395L31.708 21H30.333L36.2412 5.35938H37.1973L37.1221 6.29395ZM42.042 21L36.6172 6.29395L36.542 5.35938H37.498L43.417 21H42.042ZM41.0752 15.4785V16.6172H32.7715V15.4785H41.0752ZM46.7148 11.8584V21H45.4365V9.37695H46.6611L46.7148 11.8584ZM46.4248 14.4688L45.8555 14.1465C45.8984 13.459 46.0381 12.8145 46.2744 12.2129C46.5107 11.6113 46.8294 11.0814 47.2305 10.623C47.6387 10.1647 48.1149 9.80664 48.6592 9.54883C49.2106 9.29102 49.8193 9.16211 50.4854 9.16211C51.0654 9.16211 51.5846 9.24089 52.043 9.39844C52.5013 9.55599 52.8916 9.80664 53.2139 10.1504C53.5361 10.4941 53.7796 10.9346 53.9443 11.4717C54.1162 12.0088 54.2021 12.6641 54.2021 13.4375V21H52.9131V13.4268C52.9131 12.6247 52.8021 11.998 52.5801 11.5469C52.3581 11.0885 52.043 10.7627 51.6348 10.5693C51.2266 10.376 50.7432 10.2793 50.1846 10.2793C49.5687 10.2793 49.028 10.4154 48.5625 10.6875C48.1042 10.9525 47.7174 11.2998 47.4023 11.7295C47.0944 12.152 46.8581 12.6068 46.6934 13.0938C46.5286 13.5736 46.4391 14.0319 46.4248 14.4688ZM58.9609 9.37695V21H57.6826V9.37695H58.9609ZM57.457 6.01465C57.457 5.77116 57.5322 5.56706 57.6826 5.40234C57.8402 5.23047 58.055 5.14453 58.3271 5.14453C58.5993 5.14453 58.8141 5.23047 58.9717 5.40234C59.1364 5.56706 59.2188 5.77116 59.2188 6.01465C59.2188 6.25098 59.1364 6.45508 58.9717 6.62695C58.8141 6.79167 58.5993 6.87402 58.3271 6.87402C58.055 6.87402 57.8402 6.79167 57.6826 6.62695C57.5322 6.45508 57.457 6.25098 57.457 6.01465ZM70.1865 16.875C70.1865 16.61 70.1471 16.3737 70.0684 16.166C69.9896 15.9512 69.8464 15.7542 69.6387 15.5752C69.431 15.3962 69.1374 15.2171 68.7578 15.0381C68.3783 14.8519 67.8805 14.6621 67.2646 14.4688C66.5628 14.2396 65.8932 13.9818 65.2559 13.6953C64.6257 13.4017 64.0635 13.0615 63.5693 12.6748C63.0752 12.2881 62.6849 11.8369 62.3984 11.3213C62.1191 10.8057 61.9795 10.2041 61.9795 9.5166C61.9795 8.85059 62.1263 8.24902 62.4199 7.71191C62.7135 7.1748 63.1253 6.71647 63.6553 6.33691C64.1852 5.9502 64.8083 5.65658 65.5244 5.45605C66.2406 5.24837 67.0283 5.14453 67.8877 5.14453C69.0335 5.14453 70.0397 5.34863 70.9062 5.75684C71.7799 6.15788 72.4603 6.72363 72.9473 7.4541C73.4342 8.17741 73.6777 9.01888 73.6777 9.97852H70.1973C70.1973 9.55599 70.1077 9.18359 69.9287 8.86133C69.7568 8.5319 69.4919 8.27409 69.1338 8.08789C68.7829 7.90169 68.3424 7.80859 67.8125 7.80859C67.2969 7.80859 66.8636 7.88737 66.5127 8.04492C66.1689 8.19531 65.9076 8.40299 65.7285 8.66797C65.5566 8.93294 65.4707 9.22298 65.4707 9.53809C65.4707 9.78874 65.5352 10.0179 65.6641 10.2256C65.8001 10.4261 65.9935 10.6159 66.2441 10.7949C66.502 10.9668 66.8171 11.1315 67.1895 11.2891C67.5618 11.4466 67.988 11.597 68.4678 11.7402C69.3057 12.0052 70.0469 12.2988 70.6914 12.6211C71.3431 12.9434 71.891 13.3086 72.335 13.7168C72.779 14.125 73.112 14.5869 73.334 15.1025C73.5632 15.6182 73.6777 16.2018 73.6777 16.8535C73.6777 17.5482 73.5417 18.1641 73.2695 18.7012C73.0046 19.2383 72.6178 19.6966 72.1094 20.0762C71.6081 20.4486 71.0065 20.7314 70.3047 20.9248C69.6029 21.1182 68.8187 21.2148 67.9521 21.2148C67.1644 21.2148 66.3874 21.1146 65.6211 20.9141C64.8548 20.7064 64.1602 20.3913 63.5371 19.9688C62.9212 19.5462 62.4271 19.0091 62.0547 18.3574C61.6895 17.6986 61.5068 16.918 61.5068 16.0156H65.0088C65.0088 16.4883 65.0768 16.8893 65.2129 17.2188C65.349 17.541 65.5423 17.8024 65.793 18.0029C66.0508 18.2035 66.3623 18.3467 66.7275 18.4326C67.0928 18.5186 67.501 18.5615 67.9521 18.5615C68.4749 18.5615 68.8975 18.4899 69.2197 18.3467C69.5492 18.1963 69.7926 17.9922 69.9502 17.7344C70.1077 17.4766 70.1865 17.1901 70.1865 16.875ZM75.085 15.3066V15.0811C75.085 14.2288 75.2067 13.4447 75.4502 12.7285C75.6937 12.0052 76.0518 11.3786 76.5244 10.8486C76.9971 10.3187 77.5771 9.9069 78.2646 9.61328C78.9521 9.3125 79.7399 9.16211 80.6279 9.16211C81.5303 9.16211 82.3252 9.3125 83.0127 9.61328C83.7074 9.9069 84.291 10.3187 84.7637 10.8486C85.2363 11.3786 85.5944 12.0052 85.8379 12.7285C86.0814 13.4447 86.2031 14.2288 86.2031 15.0811V15.3066C86.2031 16.1517 86.0814 16.9359 85.8379 17.6592C85.5944 18.3753 85.2363 19.002 84.7637 19.5391C84.291 20.069 83.7109 20.4808 83.0234 20.7744C82.3359 21.068 81.5446 21.2148 80.6494 21.2148C79.7614 21.2148 78.9701 21.068 78.2754 20.7744C77.5807 20.4808 76.9971 20.069 76.5244 19.5391C76.0518 19.002 75.6937 18.3753 75.4502 17.6592C75.2067 16.9359 75.085 16.1517 75.085 15.3066ZM78.4473 15.0811V15.3066C78.4473 15.765 78.4831 16.1947 78.5547 16.5957C78.6335 16.9967 78.7588 17.3477 78.9307 17.6484C79.1025 17.9492 79.3281 18.1855 79.6074 18.3574C79.8939 18.5221 80.2412 18.6045 80.6494 18.6045C81.0576 18.6045 81.4014 18.5221 81.6807 18.3574C81.96 18.1855 82.1855 17.9492 82.3574 17.6484C82.5293 17.3477 82.651 16.9967 82.7227 16.5957C82.8014 16.1947 82.8408 15.765 82.8408 15.3066V15.0811C82.8408 14.6299 82.8014 14.2074 82.7227 13.8135C82.651 13.4124 82.5293 13.0579 82.3574 12.75C82.1855 12.4421 81.9564 12.2021 81.6699 12.0303C81.3906 11.8584 81.0433 11.7725 80.6279 11.7725C80.2269 11.7725 79.8867 11.8584 79.6074 12.0303C79.3281 12.2021 79.1025 12.4421 78.9307 12.75C78.7588 13.0579 78.6335 13.4124 78.5547 13.8135C78.4831 14.2074 78.4473 14.6299 78.4473 15.0811ZM92.8203 18.6045C93.1784 18.6045 93.4899 18.5365 93.7549 18.4004C94.0199 18.2643 94.224 18.0745 94.3672 17.8311C94.5176 17.5804 94.5928 17.2796 94.5928 16.9287H97.751C97.751 17.7738 97.5326 18.5186 97.0957 19.1631C96.666 19.8076 96.0859 20.3125 95.3555 20.6777C94.625 21.0358 93.8014 21.2148 92.8848 21.2148C91.9824 21.2148 91.1947 21.068 90.5215 20.7744C89.8483 20.4736 89.2861 20.0547 88.835 19.5176C88.3838 18.9805 88.0436 18.3574 87.8145 17.6484C87.5924 16.9323 87.4814 16.1589 87.4814 15.3281V15.0488C87.4814 14.2253 87.5924 13.4554 87.8145 12.7393C88.0436 12.0231 88.3838 11.3965 88.835 10.8594C89.2861 10.3223 89.8447 9.9069 90.5107 9.61328C91.1839 9.3125 91.9717 9.16211 92.874 9.16211C93.8265 9.16211 94.668 9.34473 95.3984 9.70996C96.1361 10.0752 96.7126 10.6016 97.1279 11.2891C97.5433 11.9694 97.751 12.7894 97.751 13.749H94.5928C94.5928 13.3766 94.5247 13.0436 94.3887 12.75C94.2598 12.4492 94.0592 12.2129 93.7871 12.041C93.5221 11.862 93.1927 11.7725 92.7988 11.7725C92.3906 11.7725 92.054 11.862 91.7891 12.041C91.5312 12.2129 91.3343 12.4528 91.1982 12.7607C91.0622 13.0687 90.9691 13.4196 90.9189 13.8135C90.8688 14.2002 90.8438 14.612 90.8438 15.0488V15.3281C90.8438 15.7721 90.8688 16.1947 90.9189 16.5957C90.9691 16.9896 91.0622 17.3369 91.1982 17.6377C91.3415 17.9385 91.542 18.1748 91.7998 18.3467C92.0576 18.5186 92.3978 18.6045 92.8203 18.6045ZM102.95 9.37695V21H99.5879V9.37695H102.95ZM99.3838 6.36914C99.3838 5.88216 99.5557 5.4847 99.8994 5.17676C100.243 4.86165 100.694 4.7041 101.253 4.7041C101.812 4.7041 102.263 4.86165 102.606 5.17676C102.957 5.4847 103.133 5.88216 103.133 6.36914C103.133 6.84896 102.957 7.24642 102.606 7.56152C102.263 7.86947 101.812 8.02344 101.253 8.02344C100.694 8.02344 100.243 7.86947 99.8994 7.56152C99.5557 7.24642 99.3838 6.84896 99.3838 6.36914ZM110.846 21.2148C109.922 21.2148 109.095 21.068 108.364 20.7744C107.634 20.4808 107.014 20.0762 106.506 19.5605C106.005 19.0378 105.621 18.4362 105.356 17.7559C105.091 17.0755 104.959 16.3486 104.959 15.5752V15.167C104.959 14.3005 105.081 13.502 105.324 12.7715C105.568 12.041 105.922 11.4072 106.388 10.8701C106.86 10.3258 107.44 9.9069 108.128 9.61328C108.815 9.3125 109.6 9.16211 110.48 9.16211C111.304 9.16211 112.038 9.29818 112.683 9.57031C113.327 9.83529 113.871 10.2184 114.315 10.7197C114.759 11.2139 115.096 11.8118 115.325 12.5137C115.562 13.2083 115.68 13.9889 115.68 14.8555V16.2305H106.312V14.0713H112.393V13.8135C112.393 13.4053 112.317 13.0472 112.167 12.7393C112.024 12.4313 111.809 12.195 111.522 12.0303C111.243 11.8584 110.889 11.7725 110.459 11.7725C110.051 11.7725 109.711 11.8584 109.438 12.0303C109.166 12.2021 108.948 12.4456 108.783 12.7607C108.626 13.0687 108.511 13.4303 108.439 13.8457C108.368 14.2539 108.332 14.6943 108.332 15.167V15.5752C108.332 16.0264 108.393 16.4382 108.515 16.8105C108.636 17.1829 108.815 17.5016 109.052 17.7666C109.288 18.0316 109.575 18.2393 109.911 18.3896C110.248 18.54 110.631 18.6152 111.061 18.6152C111.59 18.6152 112.095 18.515 112.575 18.3145C113.055 18.1068 113.47 17.7845 113.821 17.3477L115.39 19.1416C115.153 19.4854 114.82 19.8184 114.391 20.1406C113.968 20.4557 113.46 20.7135 112.865 20.9141C112.271 21.1146 111.598 21.2148 110.846 21.2148ZM123.221 9.37695V11.7295H116.324V9.37695H123.221ZM117.903 6.49805H121.266V17.3584C121.266 17.6807 121.305 17.9277 121.384 18.0996C121.463 18.2715 121.591 18.3932 121.771 18.4648C121.95 18.5293 122.179 18.5615 122.458 18.5615C122.659 18.5615 122.83 18.5544 122.974 18.54C123.117 18.5257 123.249 18.5078 123.371 18.4863V20.9141C123.085 21.0072 122.78 21.0788 122.458 21.1289C122.136 21.1862 121.785 21.2148 121.405 21.2148C120.682 21.2148 120.055 21.0967 119.525 20.8604C119.003 20.624 118.602 20.2516 118.322 19.7432C118.043 19.2275 117.903 18.5579 117.903 17.7344V6.49805ZM128.334 19.6572L131.374 9.37695H134.983L130.311 22.7402C130.21 23.0339 130.074 23.349 129.902 23.6855C129.738 24.0221 129.512 24.3444 129.226 24.6523C128.946 24.9603 128.588 25.2109 128.151 25.4043C127.715 25.5977 127.177 25.6943 126.54 25.6943C126.218 25.6943 125.967 25.6764 125.788 25.6406C125.616 25.612 125.387 25.5618 125.101 25.4902L125.09 23.0518C125.183 23.0518 125.265 23.0518 125.337 23.0518C125.416 23.0589 125.494 23.0625 125.573 23.0625C125.974 23.0625 126.297 23.0195 126.54 22.9336C126.791 22.8477 126.984 22.7188 127.12 22.5469C127.263 22.3822 127.378 22.1709 127.464 21.9131L128.334 19.6572ZM127.313 9.37695L129.72 17.6484L130.128 21.2041L127.861 21.3223L123.704 9.37695H127.313Z" fill="black"/>
<defs>
<linearGradient id="paint0_linear_3_55" x1="-0.5" y1="3" x2="-0.5" y2="23" gradientUnits="userSpaceOnUse">
<stop stop-color="#EC008C"/>
<stop offset="1" stop-color="#FC6767"/>
</linearGradient>
<linearGradient id="paint1_linear_3_55" x1="9.5" y1="5" x2="9.5" y2="21" gradientUnits="userSpaceOnUse">
<stop stop-color="#E65C00"/>
<stop offset="1" stop-color="#F9D423"/>
</linearGradient>
<linearGradient id="paint2_linear_3_55" x1="19.5" y1="7" x2="19.5" y2="19" gradientUnits="userSpaceOnUse">
<stop stop-color="#00D2FF"/>
<stop offset="1" stop-color="#3A7BD5"/>
</linearGradient>
</defs>
</svg>
